<svg width="40" height="40" viewBox="0 0 40 40" fill="none" xmlns="http://www.w3.org/2000/svg">
<g id="mdi:car-lifted-pickup">
<path id="Vector" d="M30 23.3333L31.3167 23.5L31.2833 23.8833L32.0667 24.1667L32.3167 23.9C33.15 24.3333 33.8667 25 34.3333 25.8333L34.05 26.1167L34.3833 26.8667L34.7667 26.8333C34.9167 27.3167 35 27.8167 35 28.3333L34.8333 29.6333L34.4333 29.6167L34.1167 30.4L34.4333 30.65C33.9833 31.5 33.3333 32.2 32.5 32.6667L32.2167 32.3667L31.45 32.7L31.4833 33.1C31.0167 33.25 30.5167 33.3333 30 33.3333L28.6833 33.1667L28.7 32.75L27.9333 32.45L27.6667 32.7667C26.8333 32.3167 26.1167 31.6667 25.65 30.8333L25.95 30.5333L25.6167 29.7667L25.2167 29.8C25.0833 29.3333 25 28.85 25 28.3333L25.1833 27L25.5667 27.0167L25.8833 26.25L25.5833 26C26.0333 25.15 26.6667 24.4667 27.5 23.9833L27.7833 24.2667L28.55 23.9333L28.5167 23.5667C28.9833 23.4167 29.4833 23.3333 30 23.3333ZM30 25.8333C28.6167 25.8333 27.5 26.95 27.5 28.3333C27.5 29.7167 28.6167 30.8333 30 30.8333C31.3833 30.8333 32.5 29.7167 32.5 28.3333C32.5 26.95 31.3833 25.8333 30 25.8333ZM10 23.3333L11.3167 23.5L11.2833 23.8833L12.0667 24.1667L12.3167 23.9C13.15 24.3333 13.8667 25 14.3333 25.8333L14.05 26.1167L14.3833 26.8667L14.7667 26.8333C14.9167 27.3167 15 27.8167 15 28.3333L14.8333 29.6333L14.4167 29.6167L14.1167 30.4L14.4333 30.65C13.9833 31.5 13.3333 32.2 12.5 32.6667L12.2167 32.3667L11.45 32.7L11.4833 33.1C11.0167 33.25 10.5167 33.3333 10 33.3333L8.68333 33.1667L8.7 32.75L7.93333 32.45L7.66666 32.7667C6.83333 32.3167 6.11666 31.6667 5.65 30.8333L5.95 30.5333L5.61666 29.7667L5.21666 29.8C5.08333 29.3333 5 28.85 5 28.3333L5.18333 27L5.56666 27.0167L5.88333 26.25L5.58333 26C6.03333 25.15 6.66666 24.4667 7.5 23.9833L7.78333 24.2667L8.55 23.9333L8.51666 23.5667C8.98333 23.4167 9.48333 23.3333 10 23.3333ZM10 25.8333C8.61666 25.8333 7.5 26.95 7.5 28.3333C7.5 29.7167 8.61666 30.8333 10 30.8333C11.3833 30.8333 12.5 29.7167 12.5 28.3333C12.5 26.95 11.3833 25.8333 10 25.8333ZM26.6667 10L31.6667 16.6667H35C36.85 16.6667 38.3333 18.15 38.3333 20V25H35C35 22.2333 32.7667 20 30 20C27.2333 20 25 22.2333 25 25H15C15 22.2333 12.7667 20 10 20C7.23333 20 5 22.2333 5 25H1.66666V16.6667H17.5V10H26.6667ZM20 12.5V16.6667H29.1L25.8333 12.5H20Z" fill="#FAD272"/>
</g>
</svg>
