<svg width="40" height="30" viewBox="0 0 40 30" fill="none" xmlns="http://www.w3.org/2000/svg">
<g id="fa-solid:car-side">
<path id="Vector" d="M34 11.25H33L26.2013 3.28242C25.8264 2.84331 25.351 2.48883 24.8103 2.24521C24.2696 2.0016 23.6774 1.87507 23.0775 1.875H9.70813C8.0725 1.875 6.60188 2.8084 5.99438 4.23223L3 11.3824C1.2775 11.8008 0 13.2545 0 15V21.5625C0 22.0805 0.4475 22.5 1 22.5H4C4 25.6066 6.68625 28.125 10 28.125C13.3138 28.125 16 25.6066 16 22.5H24C24 25.6066 26.6863 28.125 30 28.125C33.3138 28.125 36 25.6066 36 22.5H39C39.5525 22.5 40 22.0805 40 21.5625V16.875C40 13.7684 37.3138 11.25 34 11.25ZM10 25.3125C8.34562 25.3125 7 24.051 7 22.5C7 20.949 8.34562 19.6875 10 19.6875C11.6544 19.6875 13 20.949 13 22.5C13 24.051 11.6544 25.3125 10 25.3125ZM14.5 11.25H7.30813L9.70813 5.625H14.5V11.25ZM17.5 11.25V5.625H23.0775L27.8775 11.25H17.5ZM30 25.3125C28.3456 25.3125 27 24.051 27 22.5C27 20.949 28.3456 19.6875 30 19.6875C31.6544 19.6875 33 20.949 33 22.5C33 24.051 31.6544 25.3125 30 25.3125Z" fill="#FAD272"/>
</g>
</svg>
